<?xml version="1.0" encoding="utf-8"?>
<!-- Uploaded to: SVG Repo, www.svgrepo.com, Generator: SVG Repo Mixer Tools -->
<!--  Inventory  -->
<svg width="800px" height="800px" viewBox="0 0 1024 1024" class="icon"  version="1.1" xmlns="http://www.w3.org/2000/svg"><path d="M862.90625 932.1875H162.96875c-38.71875 0-70.125-31.40625-70.125-70.125V432.5c0-38.71875 31.40625-70.125 70.125-70.125h699.9375c38.71875 0 70.125 31.40625 70.125 70.125v429.5625c0 38.71875-31.40625 70.125-70.125 70.125z" fill="#00AAFF" /><path d="M784.0625 227.5625H239.9375c-32.4375 0-58.78125 26.34375-58.78125 58.78125v45.9375h661.6875v-45.9375c0-32.53125-26.34375-58.78125-58.78125-58.78125z" fill="#FC592D" /><path d="M721.25 91.34375H306.59375c-32.4375 0-58.78125 26.34375-58.78125 58.78125v45.9375H780.125v-45.9375c-0.09375-32.4375-26.34375-58.78125-58.875-58.78125z" fill="#FFCE00" /></svg>
<svg width="800px" height="800px" viewBox="0 0 1024 1024" class="icon"  version="1.1" xmlns="http://www.w3.org/2000/svg"><path d="M545.7 254.4H160.2l3-22.6c6-45.7 28.4-87.7 63.1-118.3 35-30.9 80-47.9 126.7-47.9s91.7 17 126.7 47.9c34.7 30.6 57.1 72.6 63.1 118.3l2.9 22.6z m-338.1-40h290.7C479.8 151 420.9 105.5 353 105.5S226.2 151 207.6 214.4z" fill="#515151" /><path d="M641 960.2H136.7c-39.6 0-71.8-32.1-71.8-71.8v-674H641v745.8z" fill="#4D96FF" /><path d="M834.3 488.3H448.8l3-22.6c6-45.7 28.4-87.7 63.1-118.3 35-30.9 80-47.9 126.7-47.9s91.7 17 126.7 47.9C803 378 825.4 420 831.4 465.7l2.9 22.6z m-338.1-40h290.7c-18.6-63.4-77.5-108.8-145.3-108.8-67.9 0-126.8 45.4-145.4 108.8z" fill="#515151" /><path d="M890.8 959.6H392.4c-39.4 0-71.4-32-71.4-71.4v-440h641.3v439.9c-0.1 39.5-32 71.5-71.5 71.5z" fill="#03cb28" /></svg>
